<svg width="28" height="28" viewBox="0 0 28 28" fill="none" xmlns="http://www.w3.org/2000/svg">
<path d="M14.0013 0.666016C13.7218 0.666888 13.453 0.773045 13.2483 0.963325C13.2468 0.964045 13.2454 0.964768 13.2439 0.965495L1.49913 7.36957C1.32361 7.41522 1.16193 7.50314 1.02821 7.62565L1.0217 7.62999V7.63216C0.910261 7.73598 0.821354 7.8616 0.760502 8.00122C0.699651 8.14084 0.668154 8.29149 0.667969 8.44379C0.667969 8.73848 0.785032 9.02109 0.993406 9.22947C1.20178 9.43784 1.48439 9.5549 1.77908 9.5549V25.1105C1.77908 26.3382 2.77352 27.3327 4.0013 27.3327H24.0013C25.2291 27.3327 26.2235 26.3382 26.2235 25.1105V9.5549C26.5182 9.5549 26.8008 9.43784 27.0092 9.22947C27.2176 9.02109 27.3346 8.73848 27.3346 8.44379C27.3344 8.29149 27.303 8.14084 27.2421 8.00122C27.1812 7.8616 27.0923 7.73598 26.9809 7.63216C26.9809 7.63144 26.9809 7.63071 26.9809 7.62999L26.9766 7.62782C26.8424 7.50422 26.68 7.41552 26.5035 7.36957L14.7587 0.965495L14.7543 0.963325C14.5496 0.773045 14.2808 0.666888 14.0013 0.666016ZM12.8902 7.88824H15.1124V9.6569C17.0846 10.0047 18.4139 11.2963 18.4761 13.0597H16.1888C16.0755 12.1408 15.2214 11.5297 14.0447 11.5297C12.828 11.5297 12.0243 12.0938 12.0243 12.9794C12.0243 13.696 12.5783 14.1065 13.9405 14.3965L15.3424 14.696C17.6791 15.1871 18.6866 16.1945 18.6866 17.9989C18.6855 20.0189 17.3469 21.3559 15.1124 21.6903V23.4438H12.8902V21.6968C10.7435 21.3824 9.39264 20.1174 9.31597 18.2485H11.6684C11.7817 19.1907 12.7311 19.7958 14.1011 19.7958C15.3656 19.7958 16.2604 19.1827 16.2604 18.3049C16.2604 17.5638 15.6797 17.138 14.253 16.8314L12.7383 16.508C10.6194 16.0647 9.58073 14.9621 9.58073 13.1899C9.58073 11.3288 10.8624 10.0168 12.8902 9.66124V7.88824Z" fill="black"/>
</svg>
