<svg width="20" height="20" viewBox="0 0 20 20" fill="none" xmlns="http://www.w3.org/2000/svg">
<path fill-rule="evenodd" clip-rule="evenodd" d="M17.5 10C17.5 14.1421 14.1421 17.5 10 17.5C5.85786 17.5 2.5 14.1421 2.5 10C2.5 5.85786 5.85786 2.5 10 2.5C14.1421 2.5 17.5 5.85786 17.5 10ZM10 10.75C9.58579 10.75 9.25 10.4142 9.25 10L9.25 6.66667C9.25 6.25245 9.58579 5.91667 10 5.91667C10.4142 5.91667 10.75 6.25245 10.75 6.66667L10.75 10C10.75 10.4142 10.4142 10.75 10 10.75ZM9 13.3333C9 13.8856 9.44772 14.3333 10 14.3333C10.5523 14.3333 11 13.8856 11 13.3333L11 13.325C11 12.7727 10.5523 12.325 10 12.325C9.44772 12.325 9 12.7727 9 13.325V13.3333Z" fill="#E51934"/>
</svg>
