<svg width="20" height="20" viewBox="0 0 20 20" fill="none" xmlns="http://www.w3.org/2000/svg">
<path fill-rule="evenodd" clip-rule="evenodd" d="M4.20257 1.07745C4.52801 0.752015 5.05565 0.752015 5.38109 1.07745L19.1306 14.8269C19.456 15.1524 19.456 15.68 19.1306 16.0055C18.8051 16.3309 18.2775 16.3309 17.9521 16.0055L4.20257 2.25596C3.87714 1.93053 3.87714 1.40289 4.20257 1.07745Z" fill="black"/>
<path fill-rule="evenodd" clip-rule="evenodd" d="M5.52137 5.86655C5.13467 6.17562 4.78838 6.50136 4.48385 6.8204C3.86902 7.46451 3.40019 8.1056 3.08491 8.58507C2.92675 8.82558 2.80588 9.02749 2.72336 9.17158C2.68207 9.24368 2.65028 9.30146 2.62815 9.34255C2.61707 9.36309 2.60841 9.37948 2.60216 9.39141L2.59461 9.40593L2.5922 9.41062L2.59133 9.41231C2.59133 9.41231 2.5907 9.41356 3.33333 9.79163L2.5907 9.41356C2.46977 9.6511 2.46977 9.93216 2.5907 10.1697L2.59133 10.1709L2.5922 10.1726L2.59461 10.1773L2.60216 10.1918C2.60841 10.2038 2.61707 10.2202 2.62815 10.2407C2.65028 10.2818 2.68207 10.3396 2.72336 10.4117C2.80588 10.5558 2.92675 10.7577 3.08491 10.9982C3.40019 11.4776 3.86902 12.1187 4.48385 12.7629C5.69939 14.0363 7.58013 15.4166 10.0417 15.4166C11.5401 15.4166 12.8234 14.9051 13.8724 14.2175L11.0664 11.4116C10.7701 11.5995 10.4186 11.7083 10.0417 11.7083C8.98312 11.7083 8.125 10.8502 8.125 9.79163C8.125 9.41473 8.23379 9.06324 8.42167 8.76685L5.52137 5.86655ZM11.9526 9.94077C11.9564 9.89155 11.9583 9.84182 11.9583 9.79163C11.9583 8.73308 11.1002 7.87496 10.0417 7.87496C9.99148 7.87496 9.94174 7.87689 9.89252 7.88068L6.94754 4.93569C7.84302 4.47544 8.87738 4.16663 10.0417 4.16663C12.5032 4.16663 14.3839 5.54697 15.5995 6.8204C16.2143 7.46451 16.6831 8.1056 16.9984 8.58507C17.1566 8.82558 17.2775 9.02749 17.36 9.17158C17.4013 9.24368 17.4331 9.30146 17.4552 9.34255C17.4663 9.36309 17.4749 9.37948 17.4812 9.39141L17.4887 9.40593L17.4911 9.41062L17.4923 9.41299C17.6133 9.65053 17.6136 9.93216 17.4926 10.1697L16.75 9.79163C17.4926 10.1697 17.492 10.1709 17.492 10.1709L17.4911 10.1726L17.4887 10.1773L17.4812 10.1918C17.4749 10.2038 17.4663 10.2202 17.4552 10.2407C17.4331 10.2818 17.4013 10.3396 17.36 10.4117C17.2775 10.5558 17.1566 10.7577 16.9984 10.9982C16.6831 11.4776 16.2143 12.1187 15.5995 12.7629C15.4692 12.8993 15.3313 13.037 15.1859 13.1741L11.9526 9.94077Z" fill="black"/>
</svg>
