<svg width="24" height="24" viewBox="0 0 24 24" fill="none" xmlns="http://www.w3.org/2000/svg">
<path fill-rule="evenodd" clip-rule="evenodd" d="M4.58579 6.58579C4.96086 6.21071 5.46957 6 6 6H18C18.5304 6 19.0391 6.21071 19.4142 6.58579C19.7893 6.96086 20 7.46957 20 8V9H4V8C4 7.46957 4.21071 6.96086 4.58579 6.58579ZM4 11H20V16C20 16.5304 19.7893 17.0391 19.4142 17.4142C19.0391 17.7893 18.5304 18 18 18H6C5.46957 18 4.96086 17.7893 4.58579 17.4142C4.21071 17.0391 4 16.5304 4 16V11ZM6.29289 14.2929C6.10536 14.4804 6 14.7348 6 15C6 15.2652 6.10536 15.5196 6.29289 15.7071C6.48043 15.8946 6.73478 16 7 16H12.7046C12.9698 16 13.2241 15.8946 13.4117 15.7071C13.5992 15.5196 13.7046 15.2652 13.7046 15C13.7046 14.7348 13.5992 14.4804 13.4117 14.2929C13.2241 14.1054 12.9698 14 12.7046 14H7C6.73478 14 6.48043 14.1054 6.29289 14.2929Z" fill="black"/>
</svg>
