<svg width="16" height="16" viewBox="0 0 16 16" fill="none" xmlns="http://www.w3.org/2000/svg">
<path fill-rule="evenodd" clip-rule="evenodd" d="M8 15.5C12.1421 15.5 15.5 12.1421 15.5 8C15.5 3.85786 12.1421 0.5 8 0.5C3.85786 0.5 0.5 3.85786 0.5 8C0.5 12.1421 3.85786 15.5 8 15.5ZM11.447 6.76814C11.7399 6.47525 11.7399 6.00038 11.447 5.70748C11.1541 5.41459 10.6792 5.41459 10.3863 5.70748L6.90625 9.18757L5.61366 7.89498C5.32077 7.60209 4.8459 7.60209 4.553 7.89498C4.26011 8.18788 4.26011 8.66275 4.553 8.95564L6.37592 10.7786C6.51657 10.9192 6.70734 10.9982 6.90625 10.9982C7.10516 10.9982 7.29593 10.9192 7.43658 10.7786L11.447 6.76814Z" fill="#3CB83C"/>
</svg>
