<svg width="16" height="18" viewBox="0 0 16 18" fill="none" xmlns="http://www.w3.org/2000/svg">
<path d="M14.149 1H10.829L9.84536 0.329738C9.73111 0.237644 9.61877 0.160254 9.51104 0.100234C9.40332 0.0402131 9.28318 0.0059086 9.16 0H6.9C6.78488 0.0108364 6.67371 0.0475939 6.57482 0.107516C6.47593 0.167439 6.33897 0.264988 6.24609 0.329738L5.25 1H1.911C1.136 1 0.5 1.976 0.5 2.75C0.5 2.929 0.658999 3 0.837999 3H15.202C15.381 3 15.502 2.929 15.502 2.75C15.52 1.996 14.92 1 14.149 1Z" fill="black"/>
<path d="M14.0895 5.00391H1.92653C1.88952 5.00363 1.85283 5.0108 1.81865 5.02499C1.78446 5.03917 1.75348 5.06009 1.72754 5.08649C1.70161 5.1129 1.68125 5.14424 1.66767 5.17867C1.6541 5.21311 1.64759 5.24992 1.64853 5.28692L2.64853 15.9869C2.70355 16.5498 2.97037 17.0707 3.39498 17.4442C3.81958 17.8178 4.37025 18.0161 4.93553 17.9989H11.0815C11.6483 18.0219 12.2021 17.8257 12.628 17.451C13.0539 17.0763 13.3191 16.552 13.3685 15.9869L14.3685 5.30191C14.3697 5.22578 14.3412 5.15218 14.2892 5.0966C14.2371 5.04102 14.1656 5.00779 14.0895 5.00391ZM7.07653 14.6629C7.07653 14.8897 6.98645 15.1071 6.8261 15.2675C6.66576 15.4278 6.44829 15.5179 6.22153 15.5179C5.99477 15.5179 5.77729 15.4278 5.61695 15.2675C5.45661 15.1071 5.36653 14.8897 5.36653 14.6629V8.63991C5.36653 8.41315 5.45661 8.19568 5.61695 8.03534C5.77729 7.87499 5.99477 7.78491 6.22153 7.78491C6.44829 7.78491 6.66576 7.87499 6.8261 8.03534C6.98645 8.19568 7.07653 8.41315 7.07653 8.63991V14.6629ZM10.6495 14.6629C10.6495 14.8897 10.5594 15.1071 10.3991 15.2675C10.2388 15.4278 10.0213 15.5179 9.79453 15.5179C9.56777 15.5179 9.35029 15.4278 9.18995 15.2675C9.02961 15.1071 8.93953 14.8897 8.93953 14.6629V8.63991C8.93953 8.41315 9.02961 8.19568 9.18995 8.03534C9.35029 7.87499 9.56777 7.78491 9.79453 7.78491C10.0213 7.78491 10.2388 7.87499 10.3991 8.03534C10.5594 8.19568 10.6495 8.41315 10.6495 8.63991V14.6629Z" fill="black"/>
</svg>
