<svg width="24" height="24" viewBox="0 0 24 24" fill="none" xmlns="http://www.w3.org/2000/svg">
<path d="M7.25927 4C6.56478 4 6 4.598 6 5.33333V18.6667C6 19.402 6.56478 20 7.25927 20H16.0741C16.7686 20 17.3334 19.402 17.3334 18.6667V12.6667H12.2963C11.9488 12.6667 11.6667 12.368 11.6667 12C11.6667 11.632 11.9488 11.3333 12.2963 11.3333H17.3334V5.33333C17.3334 4.598 16.7686 4 16.0741 4H7.25927ZM17.3334 11.3333V12.6667H20.8505L19.4068 14.1953C19.3464 14.2567 19.2981 14.3303 19.2649 14.4117C19.2316 14.4932 19.2141 14.5808 19.2132 14.6695C19.2124 14.7582 19.2282 14.8462 19.2599 14.9283C19.2916 15.0104 19.3384 15.085 19.3976 15.1477C19.4569 15.2104 19.5273 15.26 19.6049 15.2935C19.6824 15.3271 19.7655 15.3439 19.8493 15.343C19.9331 15.3421 20.0158 15.3235 20.0927 15.2883C20.1696 15.2531 20.2391 15.202 20.2971 15.138L22.8157 12.4714C22.9337 12.3463 23 12.1768 23 12C23 11.8232 22.9337 11.6537 22.8157 11.5286L20.2971 8.86198C20.2384 8.79812 20.1683 8.74735 20.0908 8.71269C20.0132 8.67802 19.9299 8.66016 19.8458 8.66016C19.7205 8.66019 19.5981 8.69978 19.4943 8.77385C19.3904 8.84793 19.3097 8.95313 19.2626 9.076C19.2154 9.19888 19.204 9.33384 19.2297 9.46365C19.2554 9.59345 19.317 9.71219 19.4068 9.80469L20.8505 11.3333H17.3334Z" fill="black"/>
</svg>
