<svg width="24" height="24" viewBox="0 0 24 24" fill="none" xmlns="http://www.w3.org/2000/svg">
<path d="M17.3327 4C16.6254 4 15.9472 4.28095 15.4471 4.78105C14.947 5.28115 14.666 5.95942 14.666 6.66667C14.666 7.37391 14.947 8.05219 15.4471 8.55229C15.9472 9.05238 16.6254 9.33333 17.3327 9.33333C18.0399 9.33333 18.7182 9.05238 19.2183 8.55229C19.7184 8.05219 19.9993 7.37391 19.9993 6.66667C19.9993 5.95942 19.7184 5.28115 19.2183 4.78105C18.7182 4.28095 18.0399 4 17.3327 4Z" fill="black"/>
<path fill-rule="evenodd" clip-rule="evenodd" d="M19 10.7439C18.5308 10.9098 18.026 11 17.5 11C15.0147 11 13 8.98528 13 6.5C13 5.97405 13.0902 5.46917 13.2561 5H10.25C8.14331 5 7.08996 5 6.33329 5.50559C6.00572 5.72447 5.72447 6.00572 5.50559 6.33329C5 7.08996 5 8.14331 5 10.25V13.75C5 15.8567 5 16.91 5.50559 17.6667C5.72447 17.9943 6.00572 18.2755 6.33329 18.4944C7.08996 19 8.14331 19 10.25 19H13.75C15.8567 19 16.91 19 17.6667 18.4944C17.9943 18.2755 18.2755 17.9943 18.4944 17.6667C19 16.91 19 15.8567 19 13.75V10.7439Z" fill="black"/>
</svg>
