<svg width="24" height="24" viewBox="0 0 24 24" fill="none" xmlns="http://www.w3.org/2000/svg">
<path fill-rule="evenodd" clip-rule="evenodd" d="M7.5 10C6.11929 10 5 11.1193 5 12.5V17.5C5 18.8807 6.11929 20 7.5 20H16.5C17.8807 20 19 18.8807 19 17.5V12.5C19 11.1193 17.8807 10 16.5 10H7.5ZM13 14C13 13.4477 12.5523 13 12 13C11.4477 13 11 13.4477 11 14V16C11 16.5523 11.4477 17 12 17C12.5523 17 13 16.5523 13 16V14Z" fill="black"/>
<path d="M8.5 11.3V8.5C8.5 7.57174 8.86875 6.6815 9.52513 6.02513C10.1815 5.36875 11.0717 5 12 5C12.9283 5 13.8185 5.36875 14.4749 6.02513C15.1313 6.6815 15.5 7.57174 15.5 8.5V11.3" stroke="black" stroke-width="2" stroke-linecap="round" stroke-linejoin="round"/>
</svg>
