<svg width="24" height="24" viewBox="0 0 24 24" fill="none" xmlns="http://www.w3.org/2000/svg">
<path d="M19.364 10.3636C19.364 16.0909 12.0004 21 12.0004 21C12.0004 21 4.63672 16.0909 4.63672 10.3636C4.63672 8.41068 5.41253 6.53771 6.79348 5.15676C8.17443 3.77581 10.0474 3 12.0004 3C13.9533 3 15.8263 3.77581 17.2072 5.15676C18.5882 6.53771 19.364 8.41068 19.364 10.3636Z" stroke="black" stroke-width="1.5" stroke-linecap="round" stroke-linejoin="round"/>
<path d="M12.0014 12.8183C13.357 12.8183 14.456 11.7193 14.456 10.3637C14.456 9.00812 13.357 7.90918 12.0014 7.90918C10.6458 7.90918 9.54688 9.00812 9.54688 10.3637C9.54688 11.7193 10.6458 12.8183 12.0014 12.8183Z" stroke="black" stroke-width="1.5" stroke-linecap="round" stroke-linejoin="round"/>
</svg>
