<svg width="24" height="24" viewBox="0 0 24 24" fill="none" xmlns="http://www.w3.org/2000/svg">
<path fill-rule="evenodd" clip-rule="evenodd" d="M21 12C21 16.9706 16.9706 21 12 21C7.02944 21 3 16.9706 3 12C3 7.02944 7.02944 3 12 3C16.9706 3 21 7.02944 21 12ZM11.0674 9.12966C10.8789 9.34464 10.8125 9.60253 10.8125 9.73442H8.8125C8.8125 9.12759 9.04859 8.3984 9.56376 7.81097C10.1071 7.19137 10.9344 6.76025 12.0223 6.76025C13.0198 6.76025 13.8397 7.0748 14.409 7.65988C14.9667 8.23294 15.1875 8.96716 15.1875 9.63252C15.1875 10.2866 15.0081 10.8158 14.6515 11.2592C14.3753 11.6027 14.0061 11.8647 13.7325 12.0588L13.6519 12.1162C13.5306 12.203 13.4363 12.2682 13.3614 12.32C13.1636 12.4569 13.1001 12.5008 13.0279 12.6039C12.9657 12.6928 12.8344 12.9382 12.8344 13.6891H10.8344C10.8344 12.7333 10.9966 12.0178 11.3899 11.4564C11.6907 11.0269 12.1193 10.7389 12.3699 10.5705C12.4158 10.5396 12.4558 10.5128 12.4879 10.4898C12.8597 10.2237 13.001 10.1203 13.093 10.0059C13.1328 9.95631 13.1875 9.88278 13.1875 9.63252C13.1875 9.3936 13.109 9.19168 12.9757 9.05468C12.8541 8.92969 12.5913 8.76025 12.0223 8.76025C11.5053 8.76025 11.2277 8.94686 11.0674 9.12966ZM11.8569 15.0747C11.2135 15.0747 10.6919 15.5963 10.6919 16.2397C10.6919 16.8832 11.2135 17.4047 11.8569 17.4047H11.8634C12.5068 17.4047 13.0284 16.8832 13.0284 16.2397C13.0284 15.5963 12.5068 15.0747 11.8634 15.0747H11.8569Z" fill="black"/>
</svg>
