<svg width="86" height="48" viewBox="0 0 86 48" fill="none" xmlns="http://www.w3.org/2000/svg">
<g clip-path="url(#clip0_2939_5732)">
<path d="M84.0702 22.8234L71.8904 14.1384L62.0872 1.8178C61.295 0.605932 59.9087 0 58.5224 0H4.45602C1.98045 0 0 2.01977 0 4.64548V36.3559C0 38.5777 1.78241 40.3955 3.96091 40.3955H8.71399C9.6052 40.3955 10.2984 39.6886 10.3974 38.7797C10.9915 33.5282 15.6456 29.6907 20.8938 30.2966C25.2508 30.8016 28.7166 34.3362 29.2117 38.7797C29.3107 39.6886 30.0039 40.3955 30.8951 40.3955H55.4527C56.3439 40.3955 57.037 39.6886 57.1361 38.7797C57.6312 33.4273 62.3843 29.5897 67.5334 30.1956C71.8904 30.7006 75.3562 34.1342 75.9504 38.4767C76.0494 39.4866 76.9406 40.2945 77.9308 40.2945C79.0201 40.2945 81.0005 40.3955 81.0005 40.3955C83.4761 40.3955 85.4565 38.3757 85.4565 35.75V26.0551C85.5556 24.8432 85.0604 23.7323 84.0702 22.8234ZM83.8722 35.851C83.8722 37.3658 82.6839 38.6787 81.0995 38.6787L78.1289 38.5777C78.0298 38.5777 77.8318 38.4767 77.8318 38.2747C77.0396 32.0134 71.3953 27.5699 65.2559 28.3778C60.1067 29.0847 56.0468 33.3263 55.5517 38.5777H30.9941C30.3999 32.3164 24.8547 27.7719 18.7153 28.3778C13.4671 28.9838 9.20911 33.3263 8.71399 38.6787H3.96091C2.67361 38.6787 1.68338 37.6688 1.68338 36.3559V4.54449C1.68338 3.02966 2.97068 1.71681 4.45602 1.71681H58.5224C59.4136 1.71681 60.2058 2.12076 60.7009 2.82768L70.6031 15.3503L70.8012 15.5523L83.08 24.2373C83.5751 24.7422 83.8722 25.4492 83.8722 26.1561V35.851Z" fill="#212945"/>
<path d="M74.3655 39.4864C74.1675 35.1439 70.6026 31.7103 66.3447 31.9123C62.2847 32.0133 59.017 35.3459 58.918 39.4864V39.7894C59.116 44.1319 62.6808 47.5655 66.9388 47.3636C70.9987 47.2626 74.2665 43.9299 74.3655 39.7894V39.4864ZM70.8997 44.0309C68.5232 46.4547 64.7603 46.4547 62.3838 44.0309C61.2945 42.92 60.6014 41.3042 60.6014 39.6884V39.4864C60.6014 36.1538 63.275 33.3261 66.6417 33.3261C69.9095 33.3261 72.6821 36.0528 72.6821 39.4864V39.6884C72.6821 41.4052 71.989 42.92 70.8997 44.0309Z" fill="#212945"/>
<path d="M27.5296 39.7894V39.4864C27.3315 35.1439 23.7667 31.7103 19.5087 31.9123C15.4488 32.0133 12.1811 35.3459 12.082 39.4864V39.6884C12.082 44.0309 15.5478 47.5655 19.8058 47.5655C24.1628 47.6665 27.6286 44.1319 27.5296 39.7894ZM19.8058 45.8487C16.538 45.8487 13.8644 43.122 13.7654 39.6884V39.4864C13.7654 36.1538 16.439 33.3261 19.8058 33.3261C23.0735 33.3261 25.8462 36.0528 25.8462 39.4864V39.6884C25.8462 43.122 23.1726 45.8487 19.8058 45.8487Z" fill="#212945"/>
<path d="M58.5209 12.7243L50.7971 10.6036C50.5001 10.5026 50.203 10.6036 50.005 10.8056L48.2225 12.3204H34.3594V14.1382H48.5196C48.7177 14.1382 48.9157 14.0372 49.1137 13.9362L50.7971 12.5224L57.4317 14.3402V16.8649L50.7971 18.6827L49.1137 17.2688C48.9157 17.1678 48.7177 17.0669 48.5196 17.0669H34.3594V18.8847H48.2225L50.005 20.3995C50.203 20.6015 50.5001 20.6015 50.7971 20.6015L58.5209 18.4807C58.917 18.3797 59.115 18.0767 59.115 17.6728V13.7342C59.2141 13.2293 58.917 12.8253 58.5209 12.7243Z" fill="#212945"/>
<path d="M34.3611 14.0373V12.2195C34.3611 10.8057 33.2719 9.69482 31.8855 9.69482C30.6973 9.69482 29.608 10.0988 28.6178 10.8057C27.9246 11.3106 27.2315 11.5126 26.3403 11.5126C25.5481 11.5126 24.7559 11.2097 24.0628 10.8057C23.0725 10.0988 21.9833 9.79581 20.795 9.79581H13.3683C10.1996 9.79581 7.625 12.4215 7.625 15.6532C7.625 18.8848 10.1996 21.5105 13.3683 21.5105H20.795C21.9833 21.5105 23.0725 21.2075 24.0628 20.5006C25.4491 19.4907 27.2315 19.4907 28.5188 20.5006C29.509 21.2075 30.5982 21.6115 31.7865 21.6115C33.1728 21.6115 34.2621 20.5006 34.2621 19.0868V14.1383L34.3611 14.0373ZM32.6777 18.8848C32.6777 19.2888 32.3807 19.6927 31.8855 19.6927C31.0934 19.6927 30.3012 19.3897 29.608 18.9858C27.6276 17.5719 25.053 17.5719 23.0725 18.9858C22.3794 19.4907 21.5872 19.6927 20.795 19.6927H13.3683C11.1898 19.6927 9.40741 17.8749 9.40741 15.6532C9.40741 13.4314 11.1898 11.6136 13.3683 11.6136H20.795C21.5872 11.6136 22.3794 11.9166 23.0725 12.3205C25.053 13.7344 27.6276 13.7344 29.608 12.3205C30.3012 11.8156 30.9943 11.6136 31.8855 11.6136C32.2816 11.6136 32.6777 11.9166 32.6777 12.4215V18.8848Z" fill="#969696"/>
</g>
<defs>
<clipPath id="clip0_2939_5732">
<rect width="85.5556" height="47.6667" fill="white"/>
</clipPath>
</defs>
</svg>
