<svg width="74" height="54" viewBox="0 0 74 54" fill="none" xmlns="http://www.w3.org/2000/svg">
<g clip-path="url(#clip0_2939_5760)">
<path d="M25.9128 52.9115C26.4017 53.156 27.1351 53.0337 27.3795 52.5448C27.5017 52.4226 27.5017 52.1782 27.5017 52.056V46.8004L30.4351 45.0893L33.3684 46.8004V52.1782C33.3684 52.5448 33.6128 52.9115 33.8573 53.156C34.224 53.4004 34.5906 53.4004 34.9573 53.156C37.7684 51.5671 39.4795 48.5115 39.4795 45.3337C39.4795 42.2782 37.8906 39.3448 35.324 37.756V5.97818C35.6906 3.28929 33.9795 0.844842 31.2906 0.355953C28.6017 -0.0107132 26.1573 1.7004 25.6684 4.38929C25.5462 4.87818 25.5462 5.36706 25.6684 5.97818V37.756C23.1017 39.3448 21.5128 42.156 21.3906 45.2115V45.3337C21.5128 48.3893 23.224 51.3226 25.9128 52.9115ZM27.2573 38.9782C27.624 38.7337 27.8684 38.3671 27.8684 38.0004V5.73373C27.8684 4.26706 29.0906 3.04484 30.5573 3.04484C32.024 3.04484 33.2462 4.26706 33.2462 5.73373V38.1226C33.2462 38.4893 33.4906 38.856 33.8573 39.1004C36.1795 40.3226 37.524 42.6448 37.524 45.2115C37.524 46.9226 36.7906 48.6337 35.6906 49.856V46.1893C35.6906 45.8226 35.4462 45.456 35.2017 45.2115L31.0462 42.8893C30.6795 42.6448 30.3128 42.6448 29.9462 42.8893L25.9128 45.2115C25.5462 45.456 25.424 45.7004 25.424 46.1893V49.856C24.2017 48.6337 23.5906 46.9226 23.5906 45.2115C23.5906 42.5226 25.0573 40.2004 27.2573 38.9782Z" fill="#212945"/>
<path d="M51.3335 23.8225H54.2668C56.3446 23.8225 57.9335 25.4114 57.9335 27.4892V48.3892C58.3002 51.0781 60.8668 52.9114 63.5557 52.4225C65.6335 52.0558 67.2224 50.4669 67.5891 48.3892L67.8335 26.3892C67.8335 23.5781 69.3002 20.8892 71.6224 19.1781L72.1113 18.8114C72.7224 18.3225 73.0891 17.7114 73.0891 16.8558C73.0891 15.5114 72.1113 14.4114 70.7668 14.4114H70.6446H58.0557V8.4225H70.4002C71.0113 8.4225 71.5002 7.93362 71.5002 7.44473C71.5002 5.73362 70.7668 4.0225 69.5446 2.80028C68.3224 1.57806 66.6113 0.844727 64.778 0.844727H54.7557C53.5335 0.844727 52.3113 1.33362 51.4557 2.18917C50.6002 2.9225 50.1113 4.14473 50.1113 5.36695V14.6558H48.8891C48.278 14.6558 47.7891 15.1447 47.7891 15.7558V20.5225C47.7891 21.3781 48.1557 22.2336 48.7668 22.8447C49.5002 23.4558 50.3557 23.8225 51.3335 23.8225ZM52.3113 5.36695C52.3113 4.75584 52.5557 4.14473 53.0446 3.65584C53.5335 3.16695 54.1446 2.9225 54.878 2.9225H64.778C66.0002 2.9225 67.1002 3.41139 67.9557 4.26695C68.5668 4.75584 68.9335 5.48917 69.178 6.2225H56.9557C56.3446 6.2225 55.8557 6.71139 55.8557 7.3225V14.6558H52.1891L52.3113 5.36695ZM49.9891 16.8558H70.7668L70.8891 16.9781L71.0113 17.2225H70.8891L70.4002 17.5892C67.4668 19.6669 65.7557 22.9669 65.7557 26.5114L65.5113 48.5114C65.5113 49.9781 64.2891 51.2003 62.8224 51.2003C61.3557 51.2003 60.1335 49.9781 60.1335 48.5114V27.4892C60.1335 24.3114 57.5668 21.7447 54.3891 21.7447H51.3335C50.9668 21.7447 50.6002 21.6225 50.3557 21.3781C50.2335 21.1336 50.1113 20.8892 50.1113 20.5225L49.9891 16.8558Z" fill="#B6B6B6"/>
<path d="M7.33325 28.1001V42.2779C7.33325 42.5223 7.33325 42.7668 7.57769 42.889L8.92214 44.6001L7.21103 51.2001H4.8888L3.17769 44.6001L4.52214 42.889C4.64436 42.6445 4.76658 42.4001 4.76658 42.1557V28.1001H2.56658V41.9112L1.09991 43.6223C0.855469 43.8668 0.855469 44.2334 0.855469 44.6001L2.93325 52.4223C3.05547 52.9112 3.42214 53.2779 3.91102 53.1557H7.82214C8.31103 53.1557 8.67769 52.789 8.92214 52.4223L10.9999 44.6001C11.1221 44.2334 10.9999 43.8668 10.7555 43.6223L9.2888 41.789V28.1001H7.33325Z" fill="#212945"/>
<path d="M0 25.4115C0 26.8782 1.1 27.9782 2.56667 28.1004H9.41111C10.8778 27.9782 11.9778 26.8782 11.9778 25.4115C11.9778 24.1893 11.6111 22.9671 10.8778 21.9893C10.3889 21.3782 10.1444 20.6449 10.1444 19.7893C10.1444 19.056 10.3889 18.2004 10.8778 17.5893C11.6111 16.6115 11.9778 15.3893 11.9778 14.1671V6.71154C11.9778 3.41155 9.28889 0.722656 5.98889 0.722656C2.68889 0.722656 0 3.41155 0 6.71154V14.2893C0 15.5115 0.366667 16.7338 1.1 17.7115C2.07778 19.056 2.07778 20.7671 1.1 21.9893C0.366667 22.9671 0 24.1893 0 25.4115ZM2.81111 16.3671C2.32222 15.756 2.07778 15.0227 2.07778 14.1671V6.71154C2.07778 4.63377 3.78889 2.80043 5.98889 2.80043C8.18889 2.80043 9.9 4.51155 9.9 6.71154V14.2893C9.9 15.0227 9.65556 15.756 9.16667 16.4893C7.7 18.5671 7.7 21.256 9.16667 23.3338C9.65556 23.9449 9.9 24.6782 9.9 25.5338C9.9 25.9004 9.65556 26.1449 9.28889 26.1449H2.81111C2.44444 26.1449 2.2 25.9004 2.2 25.5338C2.2 24.8004 2.44444 23.9449 2.93333 23.3338C3.66667 22.356 4.03333 21.1338 4.03333 19.9115C3.91111 18.5671 3.54444 17.3449 2.81111 16.3671Z" fill="#B6B6B6"/>
</g>
<defs>
<clipPath id="clip0_2939_5760">
<rect width="73.0889" height="53.1667" fill="white" transform="translate(0 0.111328)"/>
</clipPath>
</defs>
</svg>
