<svg width="76" height="64" viewBox="0 0 76 64" fill="none" xmlns="http://www.w3.org/2000/svg">
<g clip-path="url(#clip0_2939_5331)">
<path d="M9.77734 35.2141H11.5575V4.99509C11.5575 3.83687 12.4999 2.78394 13.7564 2.78394H71.3485C72.5004 2.78394 73.5475 3.73158 73.5475 4.99509V44.4799C73.5475 45.6381 72.6051 46.691 71.3485 46.691H20.7722V48.481V48.5863H33.6519L31.9765 58.1679H28.1021C27.5785 58.2732 27.2644 58.6944 27.2644 59.2209C27.2644 59.642 27.6832 59.9579 28.1021 60.0632H57.6311C58.1547 60.1685 58.5735 59.7473 58.6783 59.2209C58.783 58.6944 58.3641 58.2732 57.8406 58.1679C57.7358 58.1679 57.7358 58.1679 57.6311 58.1679H55.2227L53.5473 48.5863H71.3485C73.5475 48.5863 75.3276 46.7963 75.3276 44.5852V4.8898C75.3276 2.67865 73.5475 0.888672 71.3485 0.888672H13.7564C11.5575 0.888672 9.77734 2.67865 9.77734 4.8898V35.2141ZM53.3379 58.0627H33.7566L35.432 48.481H51.5578L53.3379 58.0627Z" fill="#212945"/>
<path d="M61.7159 14.4712H24.857C23.1816 14.4712 21.8203 15.84 21.8203 17.5247V17.8406C21.8203 19.5252 23.1816 20.8941 24.857 20.8941H61.6112C63.2866 20.8941 64.6479 19.5252 64.6479 17.8406V17.5247C64.6479 15.84 63.2866 14.4712 61.7159 14.4712ZM62.8677 17.8406C62.8677 18.4723 62.3442 18.9988 61.7159 18.9988H24.857C24.2287 18.9988 23.7051 18.4723 23.7051 17.8406V17.5247C23.7051 16.8929 24.2287 16.3665 24.857 16.3665H61.6112C62.2395 16.3665 62.763 16.8929 62.763 17.5247V17.8406H62.8677Z" fill="#212945"/>
<path d="M32.0822 9.41748H21.8203V11.3128H32.0822V9.41748Z" fill="#212945"/>
<path d="M52.8161 29.5283H24.9625C23.2871 29.5283 21.9258 30.8971 21.9258 32.5818V32.8977C21.9258 34.5824 23.2871 35.9512 24.9625 35.9512H52.8161C54.4915 35.9512 55.8528 34.5824 55.8528 32.8977V32.5818C55.8528 31.0024 54.4915 29.5283 52.8161 29.5283ZM54.0726 32.8977C54.0726 33.5294 53.5491 34.1612 52.9208 34.1612H24.9625C24.3342 34.1612 23.7059 33.6347 23.7059 32.8977V32.5818C23.7059 31.9501 24.2295 31.3183 24.9625 31.3183H52.8161C53.4444 31.3183 54.0726 31.8448 54.0726 32.5818V32.8977Z" fill="#212945"/>
<path d="M32.0822 24.4741H21.8203V26.3694H32.0822V24.4741Z" fill="#212945"/>
<path d="M10.511 63.2218H10.7204C16.1655 63.2218 20.6681 58.7995 20.6681 53.2189V48.2702V46.3749V45.1114C20.6681 39.952 16.689 35.635 11.5581 35.2139H9.77799C4.64706 35.635 0.667969 39.952 0.667969 45.2167V53.3242C0.667969 58.7995 5.06591 63.2218 10.511 63.2218ZM16.4796 39.4256C18.0503 40.8997 18.888 43.0055 18.888 45.2167V46.4802H11.5581V37.1091C13.4429 37.3197 15.2231 38.0568 16.4796 39.4256ZM4.85648 39.4256C6.21775 38.0568 7.89316 37.2144 9.77799 37.1091V46.4802H2.44809V45.2167C2.44809 43.0055 3.28579 41.005 4.85648 39.4256ZM2.44809 48.3755H18.888V53.3242C18.888 57.8518 15.2231 61.4318 10.8251 61.4318H10.511C6.00832 61.4318 2.44809 57.7465 2.44809 53.3242V48.3755Z" fill="#9A9A9A"/>
</g>
<defs>
<clipPath id="clip0_2939_5331">
<rect width="74.5556" height="62.3333" fill="white" transform="translate(0.667969 0.888672)"/>
</clipPath>
</defs>
</svg>
